<?xml version="1.0" encoding="UTF-8" standalone="yes"?><svg xmlns="http://www.w3.org/2000/svg" xmlns:xlink="http://www.w3.org/1999/xlink" version="1.2" baseProfile="tiny" x="0" y="0" width="1183" height="170" viewBox="0 0 1182.76 170.38"><defs/><defs/><g id="图层_2"><g id="图层_1-2"><path fill="none" stroke="#f5b342" stroke-miterlimit="10" d="M 94.54 19.71 L 175.61 19.71 C 177.264 19.7073 178.851 20.3625 180.022 21.5312 C 181.192 22.6998 181.85 24.286 181.85 25.94 C 181.85 29.3863 179.056 32.18 175.61 32.18 L 138.2 32.18 C 134.769 32.202 132 34.9893 132 38.42 C 132 40.074 132.658 41.6602 133.828 42.8288 C 134.999 43.9975 136.586 44.6527 138.24 44.65 L 1182.76 44.65"/><path fill="none" stroke="#f5b342" stroke-miterlimit="10" d="M 144.43 32.18 C 142.776 32.18 141.19 32.8377 140.021 34.0083 C 138.853 35.1788 138.197 36.766 138.2 38.42 C 138.2 41.8607 140.989 44.65 144.43 44.65"/><path fill="none" stroke="#f5b342" stroke-miterlimit="10" d="M 150.67 32.18 C 147.224 32.18 144.43 34.9737 144.43 38.42 C 144.436 41.8624 147.228 44.65 150.67 44.65"/><path fill="none" stroke="#f5b342" stroke-miterlimit="10" d="M 169.38 32.18 C 171.034 32.18 172.62 31.5223 173.789 30.3517 C 174.957 29.1812 175.613 27.594 175.61 25.94 C 175.61 22.4993 172.821 19.71 169.38 19.71"/><path fill="none" stroke="#f5b342" stroke-miterlimit="10" d="M 163.14 32.18 C 166.586 32.18 169.38 29.3863 169.38 25.94 C 169.38 24.286 168.722 22.6998 167.552 21.5312 C 166.381 20.3625 164.794 19.7073 163.14 19.71"/><polygon fill="none" stroke="#f5b342" stroke-width="2" stroke-miterlimit="10" points="38.42,25.95 13.47,25.95 13.47,7.24 19.71,7.24 19.71,1 38.42,1 38.42,25.95"/><rect fill="none" stroke="#f5b342" stroke-width="2" stroke-miterlimit="10" x="13.47" y="1" width="93.54" height="6.24"/><rect fill="none" stroke="#f5b342" stroke-width="2" stroke-miterlimit="10" transform="matrix(0,1,-1,0,95.54,87.31)" x="-73.83" y="88.31" width="155.91" height="6.24"/><polygon fill="none" stroke="#f5b342" stroke-width="2" stroke-miterlimit="10" points="25.95,38.42 1,38.42 1,19.71 7.24,19.71 7.24,13.47 25.95,13.47 25.95,38.42"/><polygon fill="none" stroke="#f5b342" stroke-width="2" stroke-miterlimit="10" points="38.42,38.42 38.42,44.65 19.71,44.65 19.71,19.71 44.65,19.71 44.65,38.42 38.42,38.42"/><path fill="#3d5950" d="M 1 1 L 57.13 50.89 C 57.13 50.89 38.42 22.83 1 1 Z"/><path fill="#3d5950" d="M 57.13 50.6 L 129.78 69.6 C 129.78 69.6 94.54 54 57.13 50.6 Z"/><path fill="#3d5950" d="M 57.92 50.89 L 79 91.43 C 79 91.43 70.65 67.72 57.92 50.89 Z"/><path fill="#3d5950" d="M 79 91.43 L 68.6 135.89 C 68.6 135.89 77.67 112.49 79 91.43 Z"/><path fill="#007a50" d="M 32.18 25.94 C 32.18 25.94 41.54 16.59 79 16.59 C 69.6 24.39 32.18 25.94 32.18 25.94 Z"/><path fill="#007a50" d="M 79 91.43 C 79 91.43 85.24 82.07 110.18 82.07 C 103.9 89.87 79 91.43 79 91.43 Z"/><path fill="#007a50" d="M 57 50.89 C 57 50.89 60.72 61.26 46.28 79.55 C 43.73 70.14 57 50.89 57 50.89 Z"/><path fill="#007a50" d="M 1 54 C 1 54 12 53.39 25.4 72.46 C 15.68 72.18 1 54 1 54 Z"/><path fill="#007a50" d="M 78.94 91.42 C 78.94 91.42 79.94 102.42 61.23 116.42 C 61.22 106.64 78.94 91.42 78.94 91.42 Z"/><path fill="#007a50" d="M 106 1 C 106 1 107 12 88.31 25.94 C 88.3 16.21 106 1 106 1 Z"/><path fill="#007a50" d="M 74.44 116.37 C 74.44 116.37 70.61 126.7 47.77 131.37 C 51.92 122.56 74.44 116.37 74.44 116.37 Z"/><path fill="#007a50" d="M 119.49 42.13 C 119.49 42.13 115.65 52.46 92.82 57.13 C 97 48.32 119.49 42.13 119.49 42.13 Z"/><path fill="#007a50" d="M 91.71 153.11 C 91.71 153.11 80.71 152.45 69.6 131.96 C 79.23 133.37 91.71 153.11 91.71 153.11 Z"/><path fill="#007a50" d="M 21.17 86.92 C 21.17 86.92 12.77 88.2 4.17 75.85 C 11.48 75.3 21.17 86.92 21.17 86.92 Z"/><path fill="#007a50" d="M 12.34 94.54 C 12.34 94.54 4.6 91 4.12 76 C 10.58 79.51 12.34 94.54 12.34 94.54 Z"/><path fill="#007a50" d="M 57.13 50.67 C 57.13 50.67 67.13 58.11 69.78 90.9 C 61.35 83.34 57.13 50.67 57.13 50.67 Z"/><path fill="#007a50" d="M 78.77 91.43 C 78.77 91.43 88.77 98.86 91.43 131.65 C 83 124.09 78.77 91.43 78.77 91.43 Z"/><path fill="#007a50" d="M 69.6 132 C 69.6 132 68.92 140.91 50.31 154.06 C 51.65 146.05 69.6 132 69.6 132 Z"/><path fill="#007a50" d="M 57.13 50.89 C 57.13 50.89 61.88 43.14 86.25 38.15 C 81.27 44.82 57.13 50.89 57.13 50.89 Z"/><path fill="#007a50" d="M 120 66.54 C 120 66.54 130.6 69.54 137.11 91.91 C 128 88.49 120 66.54 120 66.54 Z"/><path fill="#007a50" d="M 121 66.56 C 121 66.56 129.86 64.71 150.68 78.84 C 142.42 79.79 121 66.56 121 66.56 Z"/><path fill="#007a50" d="M 120.39 66.79 C 120.39 66.79 125.92 59.57 150.67 57.13 C 145 63.25 120.39 66.79 120.39 66.79 Z"/><path fill="#007a50" d="M 29.06 63.67 C 29.06 63.67 20.06 53.98 21.38 16.59 C 28.84 26.22 29.06 63.67 29.06 63.67 Z"/></g></g></svg>
